# xmcd CD database file
#
# Track frame offsets:
#	150
#	17090
#	43708
#	77041
#	119380
#	135737
#	154091
#	171196
#	184410
#	212233
#	233006
#	260062
#	274409
#	299148
#	323885
#	340687
#
# Disc length: 4797 seconds
#
# Revision: 0
# Processed by: cddbd v1.5.2PL0 Copyright (c) Steve Scherf et al.
# Submitted via: CDex 1.97
#
DISCID=f812bb10
DTITLE=Various Artist - Boccaccio Life - The End Of An Era [CD1)
DYEAR=2018
DGENRE=New Beat
TTITLE0=Aquaplex and Junk Project - Brightness
TTITLE1=Club Royale - Loosing Sleep
TTITLE2=Dave Kane - Star Wash (Kane Vs Viper Mix)
TTITLE3=Lambda - Hold On Tight (Nalin and Kane Remix)
TTITLE4=Dj Philip Vs Dj Franco - Harmony
TTITLE5=Jens Lissat - Energy Flow
TTITLE6=Armand Van Helden - The Funk Phenomena
TTITLE7=Lexy and K-Paul Ft. Atomek Dogg - Let's Play
TTITLE8=Departement Of Dance - Dear Mate
TTITLE9=Hyper Pearl - Can You Feel The Pain
TTITLE10=Innertales - Odyssee
TTITLE11=Extreme Trax - Final Fantasy
TTITLE12=Global Trance Mission - Dream Mission
TTITLE13=Kay and Fisher - Continental Drift
TTITLE14=Vision - Burning Love
TTITLE15=Razor'n Guido - Do It Again
EXTD=YEAR: 2018
EXTT0=
EXTT1=
EXTT2=
EXTT3=
EXTT4=
EXTT5=
EXTT6=
EXTT7=
EXTT8=
EXTT9=
EXTT10=
EXTT11=
EXTT12=
EXTT13=
EXTT14=
EXTT15=
PLAYORDER=
